<svg
	xmlns="http://www.w3.org/2000/svg"
	viewBox="0 0 72 72"
>
	<style type="text/css">
		.gf-logo-icon__notch{fill:#00BAF8;}
		.gf-logo-icon__logotype{fill:#FFFFFF;}
	</style>
	<path
		class="gf-logo-icon__notch"
		d="M0,0,18.36,18.36a25.72,25.72,0,0,1,14.8-4.515,34.121,34.121,0,0,1,5.644.439,28.7,28.7,0,0,1,4.914,1.279A23.807,23.807,0,0,1,48.147,17.7a31.589,31.589,0,0,1,3.765,2.757l3.826,3.257-6.213,7.491h5.584v23.9L72,72V0Z"
	/>
	<path
		class="gf-logo-icon__logotype"
		d="M33.223,59.6a22.459,22.459,0,0,1-8.4-1.519A18.926,18.926,0,0,1,14.064,47.467a21.174,21.174,0,0,1-1.518-8.091v-.11a20.031,20.031,0,0,1,1.548-7.891A19.989,19.989,0,0,1,24.932,20.527a20.918,20.918,0,0,1,8.231-1.6,28.27,28.27,0,0,1,4.805.37,23.553,23.553,0,0,1,4.015,1.038,18.383,18.383,0,0,1,3.486,1.689,25.344,25.344,0,0,1,3.147,2.307l-5.444,6.573a21.817,21.817,0,0,0-2.247-1.688A14.943,14.943,0,0,0,38.6,27.979a13.9,13.9,0,0,0-2.607-.789,15.6,15.6,0,0,0-3.087-.28,10.023,10.023,0,0,0-4.4.989,11.935,11.935,0,0,0-6.013,6.513,12.877,12.877,0,0,0-.869,4.744v.11a13.852,13.852,0,0,0,.869,4.975A11.815,11.815,0,0,0,24.952,48.2a11.1,11.1,0,0,0,3.8,2.618,12.084,12.084,0,0,0,4.775.929,16.283,16.283,0,0,0,4.435-.59,11.777,11.777,0,0,0,3.706-1.768V43.771H32.943V36.3H50.014V53.381a28.5,28.5,0,0,1-7.222,4.405A23.876,23.876,0,0,1,33.223,59.6Z"
	/>
</svg>
