<svg
	xmlns="http://www.w3.org/2000/svg"
	viewBox="0 0 198.2 35.1"
	xml:space="preserve"
>
	<style>
		.gf-logo__notch {
			fill: #00baf8;
		}
		.gf-logo__text {
			fill: #404041;
		}
	</style>
			<g>
				<path
					class="gf-logo__notch"
					d="M163.1,0l9.4,9.4v0h8.8v0.4c1.2-0.6,2.8-0.8,4.2-0.8h2.1v9.8h-2.5c-1.4,0-2,0.5-2.3,0.8c0,0,0,0,0,0.1
		l15.4,15.4V0H163.1z"
				/>
				<g>
					<path
						class="gf-logo__text"
						d="M12.1,29.7c-4.3,0-7.1-1.7-8.8-3.4C0.9,23.9,0,20.8,0,17.8v-0.1c0-3.5,1.4-6.4,3.4-8.4c2-2,5-3.5,8.7-3.5
			c1,0,2,0.1,2.8,0.2c1.5,0.2,2.8,0.6,4.4,1.6C20,8,20.6,8.5,21.2,9L18,12.8c-0.8-0.6-1.6-1.2-2.7-1.7c-0.9-0.4-1.9-0.6-3.4-0.6
			c-2.1,0-3.7,1-4.7,2.1c-1.3,1.4-1.9,3.2-1.9,5.1v0.1c0,1.8,0.6,3.8,2,5.2c1.1,1.2,2.7,2.1,5,2.1c1.6,0,3.4-0.4,4.8-1.4v-3.3H12V16
			h10v10C19.9,27.8,16.7,29.7,12.1,29.7z"
					/>
					<path
						class="gf-logo__text"
						d="M24.9,11.6h5v3.6c0.5-1.2,1.2-2.2,2.1-2.9c0.9-0.7,2.1-1,3.5-1v5.2h-0.3c-1.7,0-3,0.5-3.9,1.5
			c-1,1-1.4,2.6-1.4,4.7v6.5h-5C24.9,29.3,24.9,11.6,24.9,11.6z"
					/>
					<path
						class="gf-logo__text"
						d="M45.4,29.7c-2.3,0-4.9-0.8-6.8-2.7c-1.6-1.5-2.7-3.8-2.7-6.5v-0.1c0-2.7,1.2-5,2.7-6.5
			c1.9-1.9,4.5-2.7,6.9-2.7c2.3,0,4.9,0.8,6.8,2.6c1.6,1.5,2.7,3.8,2.7,6.5v0.1c0,2.7-1.2,5-2.7,6.5C50.3,28.9,47.8,29.7,45.4,29.7z
			 M45.5,25.4c1.7,0,2.8-0.8,3.4-1.4c0.8-0.9,1.2-2.2,1.2-3.4v-0.1c0-1.4-0.5-2.6-1.3-3.4c-1-1.1-2.1-1.5-3.4-1.5
			c-1.7,0-2.8,0.8-3.4,1.4c-0.9,1-1.2,2.2-1.2,3.4v0.1c0,1.4,0.5,2.6,1.3,3.4C42.9,24.7,44,25.4,45.5,25.4z"
					/>
					<path
						class="gf-logo__text"
						d="M143.3,29.7c-2.3,0-4.9-0.8-6.8-2.7c-1.6-1.5-2.7-3.8-2.7-6.5v-0.1c0-2.7,1.2-5,2.7-6.5
			c1.9-1.9,4.5-2.7,6.9-2.7c2.3,0,4.9,0.8,6.8,2.6c1.6,1.5,2.7,3.8,2.7,6.5v0.1c0,2.7-1.2,5-2.7,6.5
			C148.2,28.9,145.6,29.7,143.3,29.7z M143.3,25.4c1.7,0,2.8-0.8,3.4-1.4c0.8-0.9,1.2-2.2,1.2-3.4v-0.1c0-1.4-0.5-2.6-1.3-3.4
			c-1-1.1-2.1-1.5-3.4-1.5c-1.7,0-2.8,0.8-3.4,1.4c-0.9,1-1.2,2.2-1.2,3.4v0.1c0,1.4,0.5,2.6,1.3,3.4
			C140.7,24.7,141.8,25.4,143.3,25.4z"
					/>
					<path
						class="gf-logo__text"
						d="M163.3,29.7c-2.3,0-4.9-0.8-6.8-2.7c-1.6-1.5-2.7-3.8-2.7-6.5v-0.1c0-2.7,1.2-5,2.7-6.5
			c1.9-1.9,4.5-2.7,6.9-2.7c2.3,0,4.9,0.8,6.8,2.6c1.6,1.5,2.7,3.8,2.7,6.5v0.1c0,2.7-1.2,5-2.7,6.5
			C168.2,28.9,165.6,29.7,163.3,29.7z M163.3,25.4c1.7,0,2.8-0.8,3.4-1.4c0.8-0.9,1.2-2.2,1.2-3.4v-0.1c0-1.4-0.5-2.6-1.3-3.4
			c-1-1.1-2.1-1.5-3.4-1.5c-1.7,0-2.8,0.8-3.4,1.4c-0.9,1-1.2,2.2-1.2,3.4v0.1c0,1.4,0.5,2.6,1.3,3.4
			C160.8,24.7,161.9,25.4,163.3,25.4z"
					/>
					<path
						class="gf-logo__text"
						d="M62.7,29.6c-1.9,0-3.4-0.6-4.4-1.8c-1-1.2-1.6-2.8-1.6-4.8V11.6h5v9.8c0,1.2,0.3,2.1,0.8,2.7s1.3,0.9,2.2,0.9
			s1.7-0.3,2.3-0.9s0.8-1.5,0.8-2.7v-9.8h5v17.7h-5v-2.5c-0.7,0.9-1.3,1.5-2.1,2C65.1,29.2,64.2,29.6,62.7,29.6z"
					/>
					<path
						class="gf-logo__text"
						d="M75.7,11.6h5v2.5c0.7-0.9,1.3-1.5,2.1-2c0.7-0.4,1.7-0.9,3.1-0.9c1.9,0,3.4,0.6,4.4,1.8s1.6,2.8,1.6,4.8v11.4
			h-5v-9.8c0-2.4-1.1-3.6-3-3.6c-1.7,0-3.1,1-3.1,3.6v9.8h-5L75.7,11.6L75.7,11.6z"
					/>
					<path
						class="gf-logo__text"
						d="M101.8,29.6c-2.4,0-4.3-1-5.6-2.4c-1.3-1.4-2.5-3.6-2.5-6.8v-0.1c0-3.2,1.1-5.3,2.5-6.8
			c1.8-1.9,3.9-2.4,5.6-2.4c2.7,0,4.3,1.3,5.5,2.6V5.8h5v23.5h-5v-2.5c-0.6,0.8-1.4,1.5-2.2,2.1S103.1,29.6,101.8,29.6z M103,25.4
			c1.4,0,2.4-0.6,3-1.3c0.7-0.8,1.3-2,1.3-3.5v-0.1c0-1.2-0.4-2.6-1.3-3.5c-0.8-0.9-1.9-1.3-3-1.3c-1.5,0-2.4,0.6-3,1.3
			c-0.7,0.7-1.3,1.8-1.3,3.5v0.1c0,1.3,0.4,2.5,1.3,3.5C100.9,25,102,25.4,103,25.4z"
					/>
					<path
						class="gf-logo__text"
						d="M116,20.4h-2.1V16h2.1v-4.5c0-1.9,0.5-3.3,1.4-4.3c0.9-0.9,2.3-1.4,4.1-1.4s3,0.3,3.6,0.5v4.1
			c-0.7-0.2-1.3-0.4-2.3-0.4c-1.2,0-1.8,0.6-1.8,1.9V16h4.1v4.3h-4v8.9h-5L116,20.4L116,20.4z"
					/>
					<path
						class="gf-logo__text"
						d="M126.8,5.8h5v23.5h-5V5.8z"
					/>
					<path
						class="gf-logo__text"
						d="M174.7,11.6h5v3.6c0.8-1.9,2.1-4.1,5.6-3.9v5.2h-0.3c-1.7,0-3,0.5-3.9,1.5c-1,1-1.4,2.6-1.4,4.7v6.5h-5
			L174.7,11.6L174.7,11.6z"
					/>
				</g>
			</g>
		</svg>
